<svg xmlns="http://www.w3.org/2000/svg" viewBox="0 0 399.1 76.1"><path d="M98.9,33.4c1.5,0,2.9-0.3,4.3-0.9c1.3-0.6,2.5-1.6,3.4-2.8l4.1,4.2c-3.2,3.6-6.9,5.4-11.3,5.4c-2,0.1-3.9-0.2-5.8-1c-1.8-0.7-3.5-1.8-5-3.1c-1.4-1.3-2.5-3-3.2-4.7c-0.7-1.8-1.1-3.7-1-5.6c-0.1-1.9,0.3-3.9,1-5.7c0.7-1.8,1.8-3.4,3.2-4.8c1.5-1.4,3.3-2.5,5.2-3.2c1.9-0.7,4-1,6.1-0.9c2.1,0.1,4.1,0.6,6,1.5c1.9,0.9,3.5,2.2,4.9,3.8l-3.9,4.5c-0.9-1.2-2-2.1-3.3-2.7c-1.3-0.6-2.7-1-4.2-1c-2.2,0-4.4,0.8-6.1,2.3c-0.9,0.8-1.5,1.8-2,2.9c-0.4,1.1-0.6,2.3-0.6,3.4c-0.1,1.2,0.1,2.3,0.5,3.4c0.4,1.1,1,2.1,1.9,2.9C94.7,32.6,96.8,33.4,98.9,33.4z M115.5,38.9V10.7h6.3v22.6h12.1v5.6H115.5z M161.5,35c-2.9,2.7-6.6,4.2-10.6,4.2s-7.7-1.5-10.6-4.2c-1.4-1.3-2.5-2.9-3.2-4.7c-0.7-1.8-1.1-3.7-1.1-5.6c-0.1-1.9,0.3-3.9,1-5.6c0.7-1.8,1.8-3.4,3.2-4.7c2.9-2.7,6.6-4.2,10.6-4.2s7.7,1.5,10.6,4.2c1.4,1.3,2.5,2.9,3.2,4.7c0.7,1.8,1.1,3.7,1,5.6c0.1,1.9-0.3,3.9-1,5.6C164,32.1,162.9,33.7,161.5,35z M159.3,24.7c0-2.4-0.9-4.7-2.5-6.5c-0.8-0.8-1.7-1.5-2.7-2c-1-0.5-2.2-0.7-3.3-0.7c-1.1,0-2.2,0.2-3.3,0.7c-1,0.5-2,1.1-2.7,2c-1.6,1.8-2.5,4.1-2.5,6.5c0,2.4,0.9,4.7,2.5,6.5c0.8,0.8,1.7,1.5,2.7,2c1,0.5,2.2,0.7,3.3,0.7c1.1,0,2.2-0.2,3.3-0.7c1-0.5,2-1.1,2.7-2c0.8-0.9,1.5-1.9,1.9-3C159.2,27,159.4,25.9,159.3,24.7z M178.6,31.7c0.5,0.7,1.2,1.2,1.9,1.5c0.7,0.3,1.6,0.5,2.4,0.5c0.8,0,1.6-0.1,2.3-0.5c0.7-0.3,1.4-0.9,1.8-1.5c1.1-1.6,1.6-3.4,1.5-5.3V10.8h6.3v15.8c0,4.1-1.1,7.2-3.4,9.4c-1.2,1.1-2.5,2-4,2.5c-1.5,0.6-3.1,0.8-4.7,0.8c-1.6,0-3.2-0.2-4.7-0.8c-1.5-0.6-2.9-1.4-4-2.5c-2.3-2.2-3.4-5.3-3.4-9.4V10.8h6.3v15.6C176.9,28.3,177.5,30.2,178.6,31.7z M223.1,14.4c2.7,2.5,4.1,5.9,4.1,10.3s-1.3,7.9-3.9,10.5c-2.6,2.6-6.7,3.8-12,3.8h-9.8V10.7h10C216.5,10.7,220.4,11.9,223.1,14.4z M218.5,31.2c1.5-1.4,2.3-3.6,2.3-6.4s-0.8-4.9-2.3-6.4s-3.9-2.3-7.1-2.3h-3.5v17.2h4C214.3,33.5,216.7,32.8,218.5,31.2z M263.1,10.7h6.3v28.3h-6.3l-13.5-17.7v17.7h-6.3V10.7h5.9l13.9,18.2V10.7z M296.5,38.9l-2.7-6.1h-11.9l-2.7,6.1h-6.8l12.2-28.3h6.1L303,38.9H296.5z M288,19.1l-3.5,8.2h7L288,19.1z M316.5,16.2V39h-6.3V16.2h-8v-5.4h22.4v5.4C324.6,16.2,316.5,16.2,316.5,16.2z M329,10.7h6.3v28.3H329C329,38.9,329,10.7,329,10.7z M352.8,28.7l7.2-18h6.9l-11.3,28.3h-5.3l-11.3-28.3h6.9L352.8,28.7z M390.5,10.7v5.6h-14.1v5.8h12.7v5.4h-12.7v5.9H391V39h-20.8V10.8L390.5,10.7z"/><path fill="#0086FF" d="M16.2,47.3H7.5v20.3h20.3v-8.7H16.2V47.3z"/><path fill="#0086FF" d="M59.8,47.4v11.5H48.2v8.7h20.3V47.3L59.8,47.4z"/><path fill="#0086FF" d="M7.5,27.1h8.8L16.2,27V15.5h11.6V6.8H7.5V27.1z"/><path fill="#0086FF" d="M48.2,6.8v8.7h11.6v11.6h8.7V6.8C68.4,6.8,48.2,6.8,48.2,6.8z"/><path fill="#93EAFF" d="M47,27.1L35.4,15.5h12.7V6.8H27.8v8.7l11.6,11.6H47z"/><path fill="#93EAFF" d="M36.6,47.3H29l9.6,9.6l1.9,2H27.8v8.7h20.4v-8.8l-5.8-5.7L36.6,47.3z"/><path fill="#93EAFF" d="M59.8,27.1v12.6l-2-2l-9.6-9.6v7.7l5.7,5.7l5.8,5.8h8.8V27.1H59.8z"/><path fill="#93EAFF" d="M27.8,38.6L16.3,27.1H7.5v20.2h8.7V34.7l11.6,11.6V38.6z"/></svg>